<svg xmlns="http://www.w3.org/2000/svg" viewBox="0 0 732.08 126.41"><defs><style>.cls-1{fill:#fff;}</style></defs><title>updatedtriniti_logo</title><g id="Layer_2" data-name="Layer 2"><g id="Layer_1-2" data-name="Layer 1"><path class="cls-1" d="M278.86,25.65v11.8H257.72v63.31H245.38V37.45H224.14V25.65Z"/><path class="cls-1" d="M360.94,100.76,345.07,73.4h-14.6v27.36H318.13V25.65h30a24,24,0,0,1,24.15,24.14,22.59,22.59,0,0,1-4.13,13.15,23.58,23.58,0,0,1-10.79,8.63l17.06,29.19ZM330.47,37.24V62.35h17.7a11.07,11.07,0,0,0,8.37-3.65A12.51,12.51,0,0,0,360,49.79a12.51,12.51,0,0,0-3.44-8.9,11.07,11.07,0,0,0-8.37-3.65Z"/><path class="cls-1" d="M414.05,25.65h12.34v75.11H414.05Z"/><path class="cls-1" d="M516.63,25.65H529v75.11h-9.66l-35.41-51v51H471.56V25.65H481L516.63,77Z"/><path class="cls-1" d="M574.14,25.65h12.34v75.11H574.14Z"/><path class="cls-1" d="M680.47,25.65v11.8H659.33v63.31H647V37.45H625.75V25.65Z"/><path class="cls-1" d="M719.74,25.65h12.34v75.11H719.74Z"/><polygon class="cls-1" points="158.72 12.15 158.72 0 98.87 0 86.71 0 28.52 0 28.52 12.15 86.71 12.15 86.71 126.41 98.87 126.41 98.87 12.15 158.72 12.15"/><polygon class="cls-1" points="59.4 26.64 0 26.64 0 38.8 59.4 38.8 59.4 100.74 71.56 100.74 71.56 26.64 71.54 26.64 59.4 26.64"/><polygon class="cls-1" points="185.58 26.64 126.18 26.64 114.04 26.64 114.03 26.64 114.03 100.74 126.18 100.74 126.18 38.8 185.58 38.8 185.58 26.64"/></g></g></svg>