<?xml version="1.0" encoding="UTF-8"?>
<svg width="32px" height="32px" viewBox="0 0 32 32" version="1.1" xmlns="http://www.w3.org/2000/svg" xmlns:xlink="http://www.w3.org/1999/xlink">
    <!-- Generator: sketchtool 52.3 (67297) - http://www.bohemiancoding.com/sketch -->
    <title>44B86EA0-46B9-4A6D-80C2-2F12F2EC3B69</title>
    <desc>Created with sketchtool.</desc>
    <g id="Page-1" stroke="none" stroke-width="1" fill="none" fill-rule="evenodd">
        <g id="Security" transform="translate(-140.000000, -1301.000000)" fill-rule="nonzero">
            <g id="-g-Group-20" transform="translate(140.000000, 1301.000000)">
                <path d="M15.99968,0 C7.16352,0 0.00032,7.16384 0.00032,15.99968 C0.00032,24.83552 7.16352,32 15.99968,32 C24.83584,32 31.99968,24.8359467 31.99968,15.99968 C31.99968,7.16341333 24.8359467,0 15.99968,0 Z" id="Path" fill="#062339"></path>
                <g id="visible-opened-eye-interface-option" transform="translate(5.000000, 10.000000)" fill="#FFFFFF">
                    <path d="M20.7277716,5.27062718 C20.5433183,5.05511146 16.135206,0 10.5001066,0 C4.86479396,0 0.456894916,5.05511146 0.272015207,5.27083847 C-0.0907072679,5.69341832 -0.0907072679,6.30658168 0.272228447,6.72958411 C0.456894916,6.94509983 4.86479396,12 10.5001066,12 C16.135206,12 20.5433183,6.94467725 20.7279848,6.72916153 C21.0907073,6.30658168 21.0907073,5.69341832 20.7277716,5.27062718 Z M12.4159828,3.0762991 C12.8641312,2.86509079 13.4890674,3.10743599 13.8116233,3.61738428 C14.1341791,4.12755032 14.0322928,4.71240135 13.5841445,4.92360965 C13.1362483,5.1350357 12.5110599,4.89247276 12.1882518,4.38252447 C11.8659482,3.87235843 11.9675823,3.2875074 12.4159828,3.0762991 Z M10.5001079,10 C6.51473782,10 3.16085239,7.22408392 2,6.13697902 C2.7839046,5.40271329 4.56868547,3.89913287 6.87203942,3 C6.42276774,3.61991608 6.15937925,4.36064336 6.15937925,5.15795804 C6.15937925,7.33216783 8.102625,9.0946014 10.4998921,9.0946014 C12.8971591,9.0946014 14.8406208,7.33216783 14.8406208,5.15795804 C14.8406208,4.36064336 14.5774482,3.61991608 14.1281765,3 C16.4315304,3.89932867 18.2160954,5.40271329 19,6.13697902 C17.8391476,7.22467133 14.4852622,10 10.5001079,10 Z" id="Shape"></path>
                </g>
            </g>
        </g>
    </g>
</svg>