<?xml version="1.0" encoding="UTF-8"?>
<svg width="32px" height="32px" viewBox="0 0 32 32" version="1.1" xmlns="http://www.w3.org/2000/svg" xmlns:xlink="http://www.w3.org/1999/xlink">
    <!-- Generator: sketchtool 52.3 (67297) - http://www.bohemiancoding.com/sketch -->
    <title>D33ACF9E-58EC-4790-B331-2686C6F5F90A</title>
    <desc>Created with sketchtool.</desc>
    <g id="Page-1" stroke="none" stroke-width="1" fill="none" fill-rule="evenodd">
        <g id="Security" transform="translate(-140.000000, -936.000000)" fill="#062339">
            <g id="-g-padlock" transform="translate(140.000000, 936.000000)">
                <path d="M15.99968,17.2250667 C15.08096,17.2250667 14.3358933,17.9698133 14.3358933,18.8888533 C14.3358933,19.50496 14.6717867,20.0416 15.1697067,20.3293867 L15.1697067,22.1790933 L16.8296533,22.1790933 L16.8296533,20.3293867 C17.3275733,20.0417067 17.6634667,19.50496 17.6634667,18.8888533 C17.6634667,17.9698133 16.9185067,17.2250667 15.99968,17.2250667 Z" id="Path"></path>
                <path d="M16.00032,9.15722667 C14.6018133,9.15722667 13.46432,10.2948267 13.46432,11.6932267 L13.46432,14.39392 L18.5361067,14.39392 L18.5361067,11.6932267 C18.536,10.29504 17.3985067,9.15722667 16.00032,9.15722667 Z" id="Path"></path>
                <path d="M15.9994667,0.000106666667 C7.16330667,0.000106666667 0,7.16362667 0,15.9997867 C0,24.8357333 7.16330667,31.9994667 15.9994667,31.9994667 C24.8356267,31.9994667 31.9994667,24.8356267 31.9994667,15.9997867 C31.9994667,7.16362667 24.8356267,0.000106666667 15.9994667,0.000106666667 Z M20.9157333,24.22592 L11.0839467,24.22592 C10.0456533,24.22592 9.20384,23.3841067 9.20384,22.3454933 L9.20384,16.2741333 C9.20384,15.3684267 9.84458667,14.6120533 10.6974933,14.4341333 L10.6974933,11.69312 C10.6974933,8.76949333 13.07616,6.39061333 16,6.39061333 C18.9236267,6.39061333 21.3022933,8.76928 21.3022933,11.69312 L21.3022933,14.4341333 C22.15488,14.6125867 22.7956267,15.3684267 22.7956267,16.2741333 L22.7956267,22.3454933 L22.79584,22.3454933 C22.79584,23.384 21.9540267,24.22592 20.9157333,24.22592 Z" id="Shape" fill-rule="nonzero"></path>
            </g>
        </g>
    </g>
</svg>