<?xml version="1.0" encoding="UTF-8"?>
<svg width="32px" height="32px" viewBox="0 0 32 32" version="1.1" xmlns="http://www.w3.org/2000/svg" xmlns:xlink="http://www.w3.org/1999/xlink">
    <!-- Generator: sketchtool 52.3 (67297) - http://www.bohemiancoding.com/sketch -->
    <title>19261308-A776-4745-9E2E-B1B0F7CD7BE8</title>
    <desc>Created with sketchtool.</desc>
    <g id="Page-1" stroke="none" stroke-width="1" fill="none" fill-rule="evenodd">
        <g id="Security" transform="translate(-140.000000, -1121.000000)">
            <g id="-g-Group-4" transform="translate(140.000000, 1121.000000)">
                <g id="shield-(3)-copy" fill="#062339" fill-rule="nonzero">
                    <path d="M15.99968,0 C7.16334327,0 0,7.16384 0,15.99968 C0,24.83552 7.16334327,32 15.99968,32 C24.8360167,32 32,24.8359467 32,15.99968 C32,7.16341333 24.8361234,0 15.99968,0 Z" id="Path"></path>
                </g>
                <g id="magnifier-tool" transform="translate(8.000000, 8.000000)" fill="#FFFFFF">
                    <path d="M11.4285714,5.71434852 C11.4285714,2.55868274 8.87002837,0 5.71431712,0 C2.55866867,0 0,2.55868274 0,5.71434852 C0,8.87001431 2.55866867,11.4285714 5.71431712,11.4285714 C8.87002837,11.4285714 11.4285714,8.87001431 11.4285714,5.71434852 Z M5.71431712,9.99994504 C3.35101965,9.99994504 1.42861854,8.07769039 1.42861854,5.71437993 C1.42861854,3.35106947 3.35101965,1.42865779 5.71431712,1.42865779 C8.07755178,1.42865779 10.0001099,3.35106947 10.0001099,5.71437993 C10.0001099,8.07769039 8.07755178,9.99994504 5.71431712,9.99994504 Z" id="Shape" stroke="#FFFFFF" fill-rule="nonzero"></path>
                    <path d="M15.596957,13.6520358 L12.2309767,10.2857143 C11.7294436,11.0657282 11.0657122,11.7291406 10.2857143,12.2307142 L13.6519668,15.5970357 C14.1893625,16.1343214 15.0606801,16.1343214 15.5969268,15.5970357 C16.1343527,15.0606268 16.1343527,14.1892913 15.596957,13.6520358 Z" id="Path"></path>
                </g>
            </g>
        </g>
    </g>
</svg>