<?xml version="1.0" encoding="UTF-8"?>
<svg width="158px" height="190px" viewBox="0 0 158 190" version="1.1" xmlns="http://www.w3.org/2000/svg" xmlns:xlink="http://www.w3.org/1999/xlink">
    <!-- Generator: sketchtool 52.3 (67297) - http://www.bohemiancoding.com/sketch -->
    <title>8DF5ADC5-AC39-4AB2-B95C-B853415A4CDC</title>
    <desc>Created with sketchtool.</desc>
    <g id="Page-1" stroke="none" stroke-width="1" fill="none" fill-rule="evenodd">
        <g id="Security" transform="translate(-998.000000, -269.000000)" fill-rule="nonzero">
            <g id="-g-shield-(4)" transform="translate(998.000000, 269.000000)">
                <path d="M155.65884,2.3499634 C154.09331,0.782887881 152.241135,0 150.101881,0 L7.90157807,0 C5.76059456,0 3.90885135,0.782887881 2.3450514,2.3499634 C0.782116148,3.91617242 0,5.77179433 0,7.91596263 L0,102.914446 C0,110.007228 1.37745829,117.036756 4.13453661,124.005628 C6.89031788,130.974066 10.305861,137.159617 14.379869,142.56098 C18.453877,147.963643 23.3082718,153.221166 28.945215,158.33355 C34.583023,163.448533 39.787619,167.691811 44.5598678,171.075083 C49.3321166,174.455755 54.3110273,177.652294 59.495303,180.659069 C64.6795787,183.667143 68.3631772,185.712097 70.5430719,186.782664 C72.723399,187.856265 74.4722436,188.680312 75.7883086,189.255672 C76.7766543,189.75088 77.8454167,190 78.9989191,190 C80.1537186,190 81.2211839,189.75088 82.2103944,189.255672 C83.5255947,188.680312 85.2744392,187.856265 87.4539017,186.782664 C89.6333641,185.712097 93.3186919,183.667576 98.5033999,180.659069 C103.684649,177.652294 108.665289,174.455755 113.436673,171.075083 C118.211084,167.691378 123.414815,163.4481 129.053488,158.33355 C134.687405,153.221166 139.543529,147.96321 143.617105,142.56098 C147.690248,137.159617 151.104926,130.974066 153.865896,124.005628 C156.623839,117.036756 158,110.007228 158,102.914446 L158,7.91596263 C157.999568,5.77049457 157.218316,3.91660567 155.65884,2.3499634 Z M134.300022,102.914446 C134.300022,117.428416 124.629711,132.271225 105.291684,147.444606 C97.5561272,153.545673 88.791584,159.196156 78.9993515,164.391291 L78.9993515,23.7478879 L134.300022,23.7478879 L134.300022,102.914446 Z" id="Shape" fill="#4E6372"></path>
                <path d="M125.300022,102.120247 C125.300022,112.099951 118.777333,122.305761 105.733705,132.738871 C100.51602,136.933921 94.6042775,140.819153 87.9993515,144.391291 L87.9993515,34.7478879 L125.300022,34.7478879 L125.300022,102.120247 Z" id="Path" fill="#9EDC5A"></path>
            </g>
        </g>
    </g>
</svg>