<?xml version="1.0" encoding="UTF-8"?>
<svg width="110px" height="29px" viewBox="0 0 110 29" version="1.1" xmlns="http://www.w3.org/2000/svg" xmlns:xlink="http://www.w3.org/1999/xlink">
    <!-- Generator: sketchtool 52.2 (67145) - http://www.bohemiancoding.com/sketch -->
    <title>4D6C6B92-005B-4AC5-BE42-D5818C09744C</title>
    <desc>Created with sketchtool.</desc>
    <defs>
        <polygon id="path-1" points="0 32.5499833 113.585962 32.5499833 113.585962 0.126583269 0 0.126583269"></polygon>
        <polygon id="path-3" points="0.32023923 0.118034788 0.32023923 2.3435988 11.0798171 2.3435988 11.0798171 23.2666623 13.3260947 23.2666623 13.3260947 2.3435988 24.3917739 2.3435988 24.3917739 0.118034788"></polygon>
        <polygon id="path-5" points="13.4845704 0.295580152 11.2511155 0.295580152 0.319910442 0.295580152 0.319910442 2.55007748 11.2511155 2.55007748 11.2511155 14.0389064 13.4878582 14.0389064 13.4878582 0.295580152"></polygon>
        <polygon id="path-7" points="2.51917144 0.295580152 0.266975621 0.295580152 0.265002895 0.295580152 0.265002895 14.0389064 2.51917144 14.0389064 2.51917144 2.55007748 13.537834 2.55007748 13.537834 0.295580152"></polygon>
        <polygon id="path-9" points="0.0072662084 0.217723222 4.07765806 0.217723222 4.07765806 5.26060337 0.0072662084 5.26060337"></polygon>
    </defs>
    <g id="Page-2" stroke="none" stroke-width="1" fill="none" fill-rule="evenodd">
        <g id="Home-PG-Assets" transform="translate(-92.000000, -1279.000000)">
            <g id="Group-30" transform="translate(88.000000, 1274.734375)">
                <polygon id="Fill-1" fill="#FFFFFF" points="51.7992215 10.9471512 47.3885344 10.9471512 47.3885344 9.57709282 57.7108245 9.57709282 57.7108245 10.9471512 53.3004662 10.9471512 53.3004662 22.7151209 51.7992215 22.7151209"></polygon>
                <g id="Group-10" transform="translate(0.000000, 0.202369)">
                    <path d="M66.0074208,16.0749243 C67.9781743,16.0749243 69.3857145,15.0612718 69.3857145,13.3722894 L69.3857145,13.3348076 C69.3857145,11.7207887 68.1471712,10.7449468 66.0264904,10.7449468 L61.972538,10.7449468 L61.972538,16.0749243 L66.0074208,16.0749243 Z M60.4897054,9.37488838 L66.1386071,9.37488838 C67.7529547,9.37488838 69.0477207,9.86248056 69.8736354,10.6883953 C70.5118124,11.3265722 70.887288,12.2461915 70.887288,13.2785849 L70.887288,13.3160667 C70.887288,15.4929701 69.3857145,16.769324 67.3212564,17.1447996 L71.356468,22.5125877 L69.5356417,22.5125877 L65.7259785,17.4075009 L61.972538,17.4075009 L61.972538,22.5125877 L60.4897054,22.5125877 L60.4897054,9.37488838 Z" id="Fill-2" fill="#FFFFFF"></path>
                    <mask id="mask-2" fill="white">
                        <use xlink:href="#path-1"></use>
                    </mask>
                    <g id="Clip-5"></g>
                    <polygon id="Fill-4" fill="#FFFFFF" mask="url(#mask-2)" points="74.1909469 22.5124233 75.6737794 22.5124233 75.6737794 9.37472399 74.1909469 9.37472399"></polygon>
                    <polygon id="Fill-6" fill="#FFFFFF" mask="url(#mask-2)" points="79.5211217 9.37472399 80.909921 9.37472399 89.186494 19.9038216 89.186494 9.37472399 90.6318448 9.37472399 90.6318448 22.5124233 89.4495242 22.5124233 80.9664725 11.7393652 80.9664725 22.5124233 79.5211217 22.5124233"></polygon>
                    <polygon id="Fill-7" fill="#FFFFFF" mask="url(#mask-2)" points="94.4797789 22.5124233 95.9626115 22.5124233 95.9626115 9.37472399 94.4797789 9.37472399"></polygon>
                    <polygon id="Fill-8" fill="#FFFFFF" mask="url(#mask-2)" points="103.282116 10.7447824 98.8714292 10.7447824 98.8714292 9.37472399 109.193719 9.37472399 109.193719 10.7447824 104.783361 10.7447824 104.783361 22.5127521 103.282116 22.5127521"></polygon>
                    <polygon id="Fill-9" fill="#FFFFFF" mask="url(#mask-2)" points="112.103458 22.5124233 113.58629 22.5124233 113.58629 9.37472399 112.103458 9.37472399"></polygon>
                </g>
                <g id="Group-13" transform="translate(9.534844, 4.476609)">
                    <mask id="mask-4" fill="white">
                        <use xlink:href="#path-3"></use>
                    </mask>
                    <g id="Clip-12"></g>
                    <polygon id="Fill-11" fill="#FFFFFF" mask="url(#mask-4)" points="-3.94578131 27.5323541 28.6571368 27.5323541 28.6571368 -4.14765697 -3.94578131 -4.14765697"></polygon>
                </g>
                <g id="Group-16" transform="translate(3.945453, 8.750849)">
                    <mask id="mask-6" fill="white">
                        <use xlink:href="#path-5"></use>
                    </mask>
                    <g id="Clip-15"></g>
                    <polygon id="Fill-14" fill="#FFFFFF" mask="url(#mask-6)" points="-3.94545253 18.3045982 17.75355 18.3045982 17.75355 -3.9701116 -3.94545253 -3.9701116"></polygon>
                </g>
                <g id="Group-19" transform="translate(24.987866, 8.750849)">
                    <mask id="mask-8" fill="white">
                        <use xlink:href="#path-7"></use>
                    </mask>
                    <g id="Clip-18"></g>
                    <polygon id="Fill-17" fill="#FFFFFF" mask="url(#mask-8)" points="-4.00068886 18.3045982 17.8031969 18.3045982 17.8031969 -3.9701116 -4.00068886 -3.9701116"></polygon>
                </g>
                <g id="Group-29" transform="translate(94.690861, 27.491749)">
                    <g id="Group-22">
                        <mask id="mask-10" fill="white">
                            <use xlink:href="#path-9"></use>
                        </mask>
                        <g id="Clip-21"></g>
                        <path d="M2.26209233,4.74907545 C3.02586618,4.74907545 3.50129321,4.41042411 3.50129321,3.84852591 L3.50129321,3.83405925 C3.50129321,3.28662771 3.04000405,2.96967636 2.1611545,2.96967636 L0.569164406,2.96967636 L0.569164406,4.74907545 L2.26209233,4.74907545 Z M2.06054546,2.46531601 C2.74508147,2.46531601 3.22017972,2.1552692 3.22017972,1.56443768 L3.22017972,1.55029981 C3.22017972,1.05317279 2.82399052,0.728988112 2.10394544,0.728988112 L0.569164406,0.728988112 L0.569164406,2.46531601 L2.06054546,2.46531601 Z M0.0072662084,0.217723222 L2.15424996,0.217723222 C2.73061481,0.217723222 3.18434185,0.383432228 3.47268868,0.664216933 C3.68114009,0.880230458 3.79654457,1.14687729 3.79654457,1.47106197 L3.79654457,1.48552863 C3.79654457,2.14080254 3.39312205,2.47978267 2.99693286,2.65239622 C3.59499771,2.83257188 4.07765806,3.17845655 4.07765806,3.86989711 L4.07765806,3.88436377 C4.07765806,4.74907545 3.35005086,5.26066913 2.24762567,5.26066913 L0.0072662084,5.26066913 L0.0072662084,0.217723222 Z" id="Fill-20" fill="#FFFFFF" mask="url(#mask-10)"></path>
                    </g>
                    <polygon id="Fill-23" fill="#FFFFFF" points="5.20770143 0.217657464 8.85329956 0.217657464 8.85329956 0.736155684 5.77683295 0.736155684 5.77683295 2.45801692 8.52911488 2.45801692 8.52911488 2.97684393 5.77683295 2.97684393 5.77683295 4.74210515 8.88913742 4.74210515 8.88913742 5.26060337 5.20770143 5.26060337"></polygon>
                    <polygon id="Fill-25" fill="#FFFFFF" points="11.3666843 0.743257498 9.67375641 0.743257498 9.67375641 0.217525949 13.6359771 0.217525949 13.6359771 0.743257498 11.9430492 0.743257498 11.9430492 5.26047185 11.3666843 5.26047185"></polygon>
                    <path d="M17.3240546,3.41626871 L16.1785582,0.844491234 L15.0258285,3.41626871 L17.3240546,3.41626871 Z M15.9194735,0.181326422 L16.4524384,0.181326422 L18.7506645,5.26043897 L18.138133,5.26043897 L17.5473015,3.92786238 L14.8025817,3.92786238 L14.2048456,5.26043897 L13.6209186,5.26043897 L15.9194735,0.181326422 Z" id="Fill-27" fill="#FFFFFF"></path>
                </g>
            </g>
        </g>
    </g>
</svg>